<?xml version="1.0" encoding="UTF-8" standalone="no"?>
<!DOCTYPE svg PUBLIC "-//W3C//DTD SVG 1.1//EN" "http://www.w3.org/Graphics/SVG/1.1/DTD/svg11.dtd">
<svg width="100%" height="100%" viewBox="0 0 32 32" version="1.1" xmlns="http://www.w3.org/2000/svg" xmlns:xlink="http://www.w3.org/1999/xlink" xml:space="preserve" xmlns:serif="http://www.serif.com/" style="fill-rule:evenodd;clip-rule:evenodd;stroke-linejoin:round;stroke-miterlimit:2;">
    <g transform="matrix(0.941176,0,0,0.941176,0.941176,8.88178e-16)">
        <path d="M16,0C7.163,0 0,7.163 0,16C0,18.948 0.797,21.709 2.187,24.081C3.699,26.659 12.129,34 16,34C19.871,34 28.301,26.659 29.812,24.081C31.203,21.709 32,18.948 32,16C32,7.163 24.837,0 16,0Z" style="fill:white;fill-rule:nonzero;"/>
    </g>
    <g transform="matrix(0.75,0,0,0.75,4,3)">
        <path d="M16,0C7.163,0 0,7.163 0,16C0,24.837 7.163,32 16,32C24.837,32 32,24.837 32,16C32,7.163 24.837,0 16,0Z" style="fill:rgb(52,201,94);fill-rule:nonzero;"/>
    </g>
    <g transform="matrix(0.0615184,0.0615184,-0.0615184,0.0615184,19.6568,5.08332)">
        <path d="M50.558,9.785C54.126,9.738 57.704,10.141 61.116,10.993C62.733,11.398 62.472,15.025 61.116,15.993C60.366,16.529 59.116,16.642 57.879,16.582C56.574,16.656 55.099,16.434 54.116,16.242L54.116,156.993C54.116,156.993 65.863,165.536 68.116,171.993C69.781,176.768 70.515,181.904 70.525,187.06L70.525,187.128L70.525,187.172L70.525,187.216L70.524,187.302L70.524,187.313C70.513,191.596 70.004,195.888 69.116,199.993C67.351,208.158 58.173,210.461 50.558,210.2C42.943,210.461 33.765,208.158 32,199.993C31.112,195.888 30.603,191.596 30.592,187.313L30.591,187.216L30.591,187.172L30.591,187.128L30.591,187.06C30.601,181.904 31.335,176.768 33,171.993C35.253,165.536 47,156.993 47,156.993L47,16.242C46.017,16.434 44.542,16.656 43.237,16.582C42,16.642 40.75,16.529 40,15.993C38.644,15.025 38.383,11.398 40,10.993C43.412,10.141 46.989,9.738 50.558,9.785Z"/>
    </g>
    <g transform="matrix(0.0615184,-0.0615184,0.0615184,0.0615184,6.12272,11.3038)">
        <path d="M50.558,9.785C54.126,9.738 57.704,10.141 61.116,10.993C62.733,11.398 62.472,15.025 61.116,15.993C60.366,16.529 59.116,16.642 57.879,16.582C56.574,16.656 55.099,16.434 54.116,16.242L54.116,156.993C54.116,156.993 65.863,165.536 68.116,171.993C69.781,176.768 70.515,181.904 70.525,187.06L70.525,187.128L70.525,187.172L70.525,187.216L70.524,187.302L70.524,187.313C70.513,191.596 70.004,195.888 69.116,199.993C67.351,208.158 58.173,210.461 50.558,210.2C42.943,210.461 33.765,208.158 32,199.993C31.112,195.888 30.603,191.596 30.592,187.313L30.591,187.216L30.591,187.172L30.591,187.128L30.591,187.06C30.601,181.904 31.335,176.768 33,171.993C35.253,165.536 47,156.993 47,156.993L47,16.242C46.017,16.434 44.542,16.656 43.237,16.582C42,16.642 40.75,16.529 40,15.993C38.644,15.025 38.383,11.398 40,10.993C43.412,10.141 46.989,9.738 50.558,9.785Z"/>
    </g>
</svg>
