<?xml version="1.0" encoding="UTF-8" standalone="no"?>
<!DOCTYPE svg PUBLIC "-//W3C//DTD SVG 1.1//EN" "http://www.w3.org/Graphics/SVG/1.1/DTD/svg11.dtd">
<svg width="100%" height="100%" viewBox="0 0 32 32" version="1.1" xmlns="http://www.w3.org/2000/svg" xmlns:xlink="http://www.w3.org/1999/xlink" xml:space="preserve" xmlns:serif="http://www.serif.com/" style="fill-rule:evenodd;clip-rule:evenodd;stroke-linecap:round;stroke-linejoin:round;stroke-miterlimit:1.5;">
    <g transform="matrix(0.941176,0,0,0.941176,0.941176,8.88178e-16)">
        <path d="M16,0C7.163,0 0,7.163 0,16C0,18.948 0.797,21.709 2.187,24.081C3.699,26.659 12.129,34 16,34C19.871,34 28.301,26.659 29.812,24.081C31.203,21.709 32,18.948 32,16C32,7.163 24.837,0 16,0Z" style="fill:white;fill-rule:nonzero;"/>
    </g>
    <g transform="matrix(0.75,0,0,0.75,4,3)">
        <path d="M16,0C7.163,0 0,7.163 0,16C0,24.837 7.163,32 16,32C24.837,32 32,24.837 32,16C32,7.163 24.837,0 16,0Z" style="fill:rgb(181,106,255);fill-rule:nonzero;"/>
    </g>
    <g transform="matrix(0.8,0,0,0.818182,2.4,1.31818)">
        <path d="M22,14L20.75,10.611L13.25,10.611L12,14L12,21L22,21L22,14Z" style="stroke:black;stroke-width:3.71px;"/>
    </g>
    <g transform="matrix(1.6,0,0,0.120321,-11.2,18.9733)">
        <path d="M20.75,10.611L13.25,10.611" style="fill:none;"/>
    </g>
    <g transform="matrix(1.6,0,0,0.120321,-11.2,18.9733)">
        <path d="M20.75,6.456L13.25,6.456C13.078,6.456 12.938,8.318 12.938,10.611C12.937,12.905 13.078,14.767 13.25,14.767L20.75,14.767C20.922,14.767 21.063,12.905 21.062,10.611C21.062,8.318 20.922,6.456 20.75,6.456Z"/>
    </g>
    <g transform="matrix(1,0,0,0.875,0,2)">
        <rect x="13" y="16" width="2" height="4" style="fill:rgb(181,106,255);"/>
    </g>
    <path d="M14.95,12.75L14.947,12.75C14.919,12.751 14.891,12.755 14.864,12.765C14.795,12.791 14.739,12.847 14.714,12.917C14.705,12.944 14.7,12.972 14.7,13C14.7,13.11 14.614,13.181 14.507,13.236C14.342,13.321 14.12,13.361 13.9,13.361C13.68,13.361 13.458,13.321 13.293,13.236C13.186,13.181 13.1,13.11 13.1,13C13.1,12.862 12.988,12.75 12.85,12.75L12.847,12.75C12.819,12.751 12.791,12.755 12.764,12.765C12.695,12.791 12.639,12.847 12.614,12.917C12.605,12.944 12.6,12.972 12.6,13C12.6,13.11 12.514,13.181 12.407,13.236C12.242,13.321 12.02,13.361 11.8,13.361C11.58,13.361 11.358,13.321 11.193,13.236C11.086,13.181 11,13.11 11,13C11,12.862 10.888,12.75 10.75,12.75C10.612,12.75 10.5,12.862 10.5,13C10.5,13.245 10.619,13.446 10.821,13.593C11.059,13.766 11.428,13.861 11.8,13.861C12.172,13.861 12.541,13.766 12.779,13.593C12.804,13.575 12.828,13.556 12.85,13.536C12.872,13.556 12.896,13.575 12.921,13.593C13.159,13.766 13.528,13.861 13.9,13.861C14.272,13.861 14.641,13.766 14.879,13.593C14.904,13.575 14.928,13.556 14.95,13.536C14.972,13.556 14.996,13.575 15.021,13.593C15.259,13.766 15.628,13.861 16,13.861C16.372,13.861 16.741,13.766 16.979,13.593C17.004,13.575 17.028,13.556 17.05,13.536C17.072,13.556 17.096,13.575 17.121,13.593C17.359,13.766 17.728,13.861 18.1,13.861C18.472,13.861 18.841,13.766 19.079,13.593C19.104,13.575 19.128,13.556 19.15,13.536C19.172,13.556 19.196,13.575 19.221,13.593C19.459,13.766 19.828,13.861 20.2,13.861C20.572,13.861 20.941,13.766 21.179,13.593C21.381,13.446 21.5,13.245 21.5,13C21.5,12.862 21.388,12.75 21.25,12.75C21.112,12.75 21,12.862 21,13C21,13.11 20.914,13.181 20.807,13.236C20.642,13.321 20.42,13.361 20.2,13.361C19.98,13.361 19.758,13.321 19.593,13.236C19.486,13.181 19.4,13.11 19.4,13C19.4,12.862 19.288,12.75 19.15,12.75C19.081,12.75 19.019,12.778 18.973,12.823L18.971,12.825C18.927,12.87 18.9,12.932 18.9,13C18.9,13.11 18.814,13.181 18.707,13.236C18.542,13.321 18.32,13.361 18.1,13.361C17.88,13.361 17.658,13.321 17.493,13.236C17.386,13.181 17.3,13.11 17.3,13C17.3,12.862 17.188,12.75 17.05,12.75C16.912,12.75 16.8,12.862 16.8,13C16.8,13.11 16.714,13.181 16.607,13.236C16.442,13.321 16.22,13.361 16,13.361C15.78,13.361 15.558,13.321 15.393,13.236C15.286,13.181 15.2,13.11 15.2,13C15.2,12.862 15.088,12.75 14.95,12.75Z" style="fill:rgb(181,106,255);"/>
    <g transform="matrix(1.05,0,0,0.846578,-0.8,1.99448)">
        <path d="M11,13C11,13.962 13,13.962 13,13" style="fill:none;stroke:rgb(181,106,255);stroke-width:0.52px;"/>
        <g transform="matrix(1,0,0,1,2,0)">
            <path d="M11,13C11,13.962 13,13.962 13,13" style="fill:none;stroke:rgb(181,106,255);stroke-width:0.52px;"/>
        </g>
        <g transform="matrix(1,0,0,1,4,0)">
            <path d="M11,13C11,13.962 13,13.962 13,13" style="fill:none;stroke:rgb(181,106,255);stroke-width:0.52px;"/>
        </g>
        <g transform="matrix(1,0,0,1,6,0)">
            <path d="M11,13C11,13.962 13,13.962 13,13" style="fill:none;stroke:rgb(181,106,255);stroke-width:0.52px;"/>
        </g>
        <g transform="matrix(1,0,0,1,8,0)">
            <path d="M11,13C11,13.962 13,13.962 13,13" style="fill:none;stroke:rgb(181,106,255);stroke-width:0.52px;"/>
        </g>
    </g>
    <g transform="matrix(1,0,0,0.5,4,8)">
        <rect x="13" y="16" width="2" height="4" style="fill:rgb(181,106,255);"/>
    </g>
</svg>
