<?xml version="1.0" encoding="UTF-8" standalone="no"?>
<!DOCTYPE svg PUBLIC "-//W3C//DTD SVG 1.1//EN" "http://www.w3.org/Graphics/SVG/1.1/DTD/svg11.dtd">
<svg width="100%" height="100%" viewBox="0 0 32 32" version="1.1" xmlns="http://www.w3.org/2000/svg" xmlns:xlink="http://www.w3.org/1999/xlink" xml:space="preserve" xmlns:serif="http://www.serif.com/" style="fill-rule:evenodd;clip-rule:evenodd;stroke-linecap:square;">
    <g transform="matrix(0.941176,0,0,0.941176,0.941176,8.88178e-16)">
        <path d="M16,0C7.163,0 0,7.163 0,16C0,18.948 0.797,21.709 2.187,24.081C3.699,26.659 12.129,34 16,34C19.871,34 28.301,26.659 29.812,24.081C31.203,21.709 32,18.948 32,16C32,7.163 24.837,0 16,0Z" style="fill:white;fill-rule:nonzero;"/>
    </g>
    <g transform="matrix(0.75,0,0,0.75,4,3)">
        <path d="M16,0C7.163,0 0,7.163 0,16C0,24.837 7.163,32 16,32C24.837,32 32,24.837 32,16C32,7.163 24.837,0 16,0Z" style="fill:rgb(3,112,243);"/>
    </g>
    <path d="M4.023,14.25C4.008,14.498 4,14.748 4,15C4,16.649 4.333,18.22 4.934,19.65L5.25,19.65L5.25,15.75L6.75,15.75L6.75,18.65L8.25,18.65L8.25,15.75L9.75,15.75L9.75,18.65L11.25,18.65L11.25,15.75L12.75,15.75L12.75,19.65L14.25,19.65L14.25,15.75L15.25,15.75L15.25,14.25L4.023,14.25Z"/>
    <g transform="matrix(0.6,0,0,0.6,4,17.7)">
        <path d="M0,3.5C5,3.5 5,0.5 10,0.5C15,0.5 15,3.5 20,3.5C25,3.5 25,0.5 30,0.5C35,0.5 35,3.5 40,3.5" style="fill:none;fill-rule:nonzero;stroke:white;stroke-width:2.5px;"/>
    </g>
</svg>
