<?xml version="1.0" encoding="UTF-8" standalone="no"?>
<!DOCTYPE svg PUBLIC "-//W3C//DTD SVG 1.1//EN" "http://www.w3.org/Graphics/SVG/1.1/DTD/svg11.dtd">
<svg width="100%" height="100%" viewBox="0 0 32 32" version="1.1" xmlns="http://www.w3.org/2000/svg" xmlns:xlink="http://www.w3.org/1999/xlink" xml:space="preserve" xmlns:serif="http://www.serif.com/" style="fill-rule:evenodd;clip-rule:evenodd;stroke-linecap:round;stroke-linejoin:round;stroke-miterlimit:1.5;">
    <g transform="matrix(0.941176,0,0,0.941176,0.941176,8.88178e-16)">
        <path d="M16,0C7.163,0 0,7.163 0,16C0,18.948 0.797,21.709 2.187,24.081C3.699,26.659 12.129,34 16,34C19.871,34 28.301,26.659 29.812,24.081C31.203,21.709 32,18.948 32,16C32,7.163 24.837,0 16,0Z" style="fill:white;fill-rule:nonzero;"/>
    </g>
    <g transform="matrix(0.75,0,0,0.75,4,3)">
        <path d="M16,0C7.163,0 0,7.163 0,16C0,24.837 7.163,32 16,32C24.837,32 32,24.837 32,16C32,7.163 24.837,0 16,0Z" style="fill:rgb(3,112,243);fill-rule:nonzero;"/>
    </g>
    <g transform="matrix(0.949208,0,0,-0.949208,0.885882,34.4745)">
        <path d="M14.131,13.123C14.911,10.572 18.463,10.3 19.668,12.63C19.802,12.889 19.89,13.173 19.938,13.46C20.033,14.018 19.951,14.613 19.736,15.134C19.52,15.654 19.157,16.132 18.696,16.46C18.191,16.819 17.621,17 17,17L8.857,17" style="fill:none;stroke:white;stroke-width:1.58px;"/>
    </g>
    <g transform="matrix(1.02237,0,0,1.02237,4.30588,-2.28188)">
        <path d="M13.153,13.123C13.933,10.572 17.485,10.3 18.69,12.63C18.824,12.889 18.912,13.173 18.96,13.46C19.055,14.018 18.973,14.613 18.758,15.134C18.542,15.654 18.179,16.132 17.717,16.46C17.212,16.819 16.643,17 16.022,17L2.899,17" style="fill:none;stroke:white;stroke-width:1.47px;"/>
    </g>
    <g transform="matrix(0.664066,0,0,0.664066,1.3046,0.672045)">
        <path d="M14.131,13.123C14.911,10.572 18.463,10.3 19.668,12.63C19.802,12.889 19.89,13.173 19.938,13.46C20.033,14.018 19.951,14.613 19.736,15.134C19.52,15.654 19.157,16.132 18.696,16.46C18.191,16.819 17.621,17 17,17L10.489,17" style="fill:none;stroke:white;stroke-width:2.26px;"/>
    </g>
</svg>
