<?xml version="1.0" encoding="UTF-8" standalone="no"?>
<!DOCTYPE svg PUBLIC "-//W3C//DTD SVG 1.1//EN" "http://www.w3.org/Graphics/SVG/1.1/DTD/svg11.dtd">
<svg width="100%" height="100%" viewBox="0 0 32 32" version="1.1" xmlns="http://www.w3.org/2000/svg" xmlns:xlink="http://www.w3.org/1999/xlink" xml:space="preserve" xmlns:serif="http://www.serif.com/" style="fill-rule:evenodd;clip-rule:evenodd;stroke-linejoin:round;stroke-miterlimit:2;">
    <g transform="matrix(0.941176,0,0,0.941176,0.941176,8.88178e-16)">
        <path d="M16,0C7.163,0 0,7.163 0,16C0,18.948 0.797,21.709 2.187,24.081C3.699,26.659 12.129,34 16,34C19.871,34 28.301,26.659 29.812,24.081C31.203,21.709 32,18.948 32,16C32,7.163 24.837,0 16,0Z" style="fill:white;fill-rule:nonzero;"/>
    </g>
    <g transform="matrix(0.75,0,0,0.75,4,3)">
        <path d="M16,0C7.163,0 0,7.163 0,16C0,24.837 7.163,32 16,32C24.837,32 32,24.837 32,16C32,7.163 24.837,0 16,0Z" style="fill:rgb(189,195,199);fill-rule:nonzero;"/>
    </g>
    <g transform="matrix(1.43197,0,0,1.43197,-6.28428,-3.26337)">
        <path d="M18.621,10.379C18.621,10.655 18.588,10.898 18.521,11.107C18.454,11.317 18.36,11.509 18.238,11.685C18.117,11.861 17.97,12.027 17.798,12.182C17.627,12.337 17.432,12.498 17.214,12.665C17.08,12.774 16.969,12.87 16.881,12.954C16.793,13.038 16.724,13.124 16.674,13.212C16.624,13.3 16.588,13.392 16.567,13.488C16.546,13.585 16.536,13.7 16.536,13.834L16.536,14.16L14.576,14.16L14.576,13.683C14.576,13.465 14.597,13.27 14.639,13.099C14.68,12.927 14.743,12.77 14.827,12.628C14.911,12.485 15.013,12.347 15.135,12.213C15.256,12.079 15.401,11.941 15.568,11.798L15.983,11.409C16.125,11.283 16.247,11.151 16.347,11.013C16.448,10.875 16.498,10.709 16.498,10.517C16.498,10.249 16.416,10.035 16.253,9.876C16.09,9.717 15.866,9.637 15.581,9.637C15.229,9.637 14.965,9.757 14.789,9.995C14.613,10.234 14.517,10.504 14.5,10.806L12.503,10.592C12.553,10.14 12.668,9.742 12.848,9.399C13.028,9.055 13.261,8.77 13.545,8.544C13.83,8.318 14.153,8.148 14.513,8.035C14.873,7.922 15.254,7.866 15.656,7.866C16.033,7.866 16.4,7.914 16.756,8.01C17.112,8.106 17.428,8.257 17.704,8.462C17.981,8.668 18.203,8.929 18.37,9.248C18.538,9.566 18.621,9.943 18.621,10.379ZM16.787,15.932C16.787,16.267 16.67,16.55 16.435,16.78C16.201,17.01 15.912,17.126 15.568,17.126C15.401,17.126 15.244,17.096 15.097,17.038C14.951,16.979 14.821,16.895 14.708,16.786C14.595,16.678 14.505,16.552 14.437,16.409C14.37,16.267 14.337,16.112 14.337,15.945C14.337,15.785 14.368,15.633 14.431,15.486C14.494,15.339 14.582,15.212 14.695,15.103C14.808,14.994 14.94,14.908 15.091,14.845C15.242,14.782 15.401,14.751 15.568,14.751C15.736,14.751 15.893,14.782 16.039,14.845C16.186,14.908 16.316,14.992 16.429,15.096C16.542,15.201 16.63,15.327 16.693,15.473C16.756,15.62 16.787,15.773 16.787,15.932Z" style="fill:white;fill-rule:nonzero;"/>
    </g>
</svg>
