<?xml version="1.0" encoding="UTF-8" standalone="no"?>
<!DOCTYPE svg PUBLIC "-//W3C//DTD SVG 1.1//EN" "http://www.w3.org/Graphics/SVG/1.1/DTD/svg11.dtd">
<svg width="100%" height="100%" viewBox="0 0 32 32" version="1.1" xmlns="http://www.w3.org/2000/svg" xmlns:xlink="http://www.w3.org/1999/xlink" xml:space="preserve" xmlns:serif="http://www.serif.com/" style="fill-rule:evenodd;clip-rule:evenodd;stroke-linejoin:round;stroke-miterlimit:2;">
    <g transform="matrix(0.941176,0,0,0.941176,0.941176,8.88178e-16)">
        <path d="M16,0C7.163,0 0,7.163 0,16C0,18.948 0.797,21.709 2.187,24.081C3.699,26.659 12.129,34 16,34C19.871,34 28.301,26.659 29.812,24.081C31.203,21.709 32,18.948 32,16C32,7.163 24.837,0 16,0Z" style="fill:white;fill-rule:nonzero;"/>
    </g>
    <g transform="matrix(0.75,0,0,0.75,4,3)">
        <path d="M16,0C7.163,0 0,7.163 0,16C0,24.837 7.163,32 16,32C24.837,32 32,24.837 32,16C32,7.163 24.837,0 16,0Z" style="fill:rgb(3,112,243);"/>
    </g>
    <path d="M4.023,14.25C4.008,14.498 4,14.748 4,15C4,16.566 4.3,18.061 4.845,19.432C4.855,19.458 4.865,19.483 4.876,19.509C4.895,19.556 5.25,19.349 5.25,19.349L5.25,15.75L6.75,15.75L6.75,18.65L8.25,18.65L8.25,15.75L9.75,15.75L9.75,18.65L11.25,18.65L11.25,15.75L12.75,15.75L12.75,18.65L14.25,18.65L14.25,15.75L15.25,15.75L15.25,14.25L4.023,14.25Z"/>
    <g transform="matrix(0.6,0,0,-0.0666667,4,19.0333)">
        <path d="M0,-7.737C5,-7.737 5,-10.737 10,-10.737C15,-10.737 15,-7.737 20,-7.737C25,-7.737 25,-10.737 30,-10.737C35,-10.737 35,-7.737 40,-7.737L41.249,-7.737L41.249,14.737L40,14.737C35,14.737 35,11.737 30,11.737C25,11.737 25,14.737 20,14.737C15,14.737 15,11.737 10,11.737C5,11.737 5,14.737 0,14.737L-1.249,14.737L-1.249,-7.737L0,-7.737Z" style="fill:white;"/>
    </g>
</svg>
