<?xml version="1.0" encoding="UTF-8" standalone="no"?>
<!DOCTYPE svg PUBLIC "-//W3C//DTD SVG 1.1//EN" "http://www.w3.org/Graphics/SVG/1.1/DTD/svg11.dtd">
<svg width="100%" height="100%" viewBox="0 0 32 32" version="1.1" xmlns="http://www.w3.org/2000/svg" xmlns:xlink="http://www.w3.org/1999/xlink" xml:space="preserve" xmlns:serif="http://www.serif.com/" style="fill-rule:evenodd;clip-rule:evenodd;stroke-linejoin:round;stroke-miterlimit:2;">
    <g transform="matrix(0.941176,0,0,0.941176,0.941176,8.88178e-16)">
        <path d="M16,0C7.163,0 0,7.163 0,16C0,18.948 0.797,21.709 2.187,24.081C3.699,26.659 12.129,34 16,34C19.871,34 28.301,26.659 29.812,24.081C31.203,21.709 32,18.948 32,16C32,7.163 24.837,0 16,0Z" style="fill:white;fill-rule:nonzero;"/>
    </g>
    <g transform="matrix(0.75,0,0,0.75,4,3)">
        <path d="M16,0C7.163,0 0,7.163 0,16C0,24.837 7.163,32 16,32C24.837,32 32,24.837 32,16C32,7.163 24.837,0 16,0Z" style="fill:rgb(234,67,53);fill-rule:nonzero;"/>
    </g>
    <g transform="matrix(0.0694796,0,0,0.0694796,7.14779,8.33243)">
        <path d="M181.762,167.755C189.983,167.755 196.658,174.43 196.658,182.651C196.658,190.873 189.983,197.548 181.762,197.548C173.54,197.548 166.865,190.873 166.865,182.651C166.865,174.43 173.54,167.755 181.762,167.755ZM113.476,167.755C121.697,167.755 128.372,174.43 128.372,182.651C128.372,190.873 121.697,197.548 113.476,197.548C105.254,197.548 98.579,190.873 98.579,182.651C98.579,174.43 105.254,167.755 113.476,167.755ZM68.608,104.402L80.437,154.239C81.792,159.947 87.04,163.993 93.09,163.993L199.777,163.993C205.403,163.993 210.389,160.484 212.126,155.303L239.014,75.062C240.296,71.236 239.61,67.047 237.167,63.794C234.724,60.54 230.82,58.615 226.666,58.615L76.434,58.615L69.601,30.31C68.589,26.119 64.839,23.167 60.528,23.167L24.5,23.167C19.349,23.167 15.167,27.349 15.167,32.5C15.167,37.651 19.349,41.833 24.5,41.833L53.18,41.833C53.18,41.833 68.346,103.512 68.346,103.512C68.422,103.828 68.51,104.125 68.608,104.402Z" style="fill:white;"/>
    </g>
</svg>
