<?xml version="1.0" encoding="UTF-8" standalone="no"?>
<!DOCTYPE svg PUBLIC "-//W3C//DTD SVG 1.1//EN" "http://www.w3.org/Graphics/SVG/1.1/DTD/svg11.dtd">
<svg width="100%" height="100%" viewBox="0 0 32 32" version="1.1" xmlns="http://www.w3.org/2000/svg" xmlns:xlink="http://www.w3.org/1999/xlink" xml:space="preserve" xmlns:serif="http://www.serif.com/" style="fill-rule:evenodd;clip-rule:evenodd;stroke-linejoin:round;stroke-miterlimit:2;">
    <g transform="matrix(0.941176,0,0,0.941176,0.941176,8.88178e-16)">
        <path d="M16,0C7.163,0 0,7.163 0,16C0,18.948 0.797,21.709 2.187,24.081C3.699,26.659 12.129,34 16,34C19.871,34 28.301,26.659 29.812,24.081C31.203,21.709 32,18.948 32,16C32,7.163 24.837,0 16,0Z" style="fill:white;fill-rule:nonzero;"/>
    </g>
    <g transform="matrix(0.75,0,0,0.75,4,3)">
        <path d="M16,0C7.163,0 0,7.163 0,16C0,24.837 7.163,32 16,32C24.837,32 32,24.837 32,16C32,7.163 24.837,0 16,0Z" style="fill:rgb(255,196,37);fill-rule:nonzero;"/>
    </g>
    <g transform="matrix(0.0627989,0,0,0.0627989,5.81589,4.6434)">
        <path d="M53.333,184.072L12.14,187.308L23,218C94.406,220.161 174.912,222.536 232.736,219.72C237.425,219.492 242.092,213.62 246.222,210.738L315.805,152.319C318.936,148.725 317.871,146.894 312.194,147L248.889,147L191.654,147.441L179.489,148.51L136.359,149.144L153.752,114.763L227.389,107.188L219.052,100.475L159.728,96.84L142.222,96.109L115.64,149.662L53.272,157.405L53.333,184.072Z"/>
    </g>
    <path d="M18.031,19.639L18.031,19.649L19.332,19.649L19.332,19.639C20.583,19.591 21.29,19.38 21.996,19.168C22.692,18.959 23.388,18.749 24.781,18.749C27.128,18.749 27.594,19.324 29.192,19.549L29.934,19.654L30.143,18.169L29.401,18.065C27.728,17.83 27.237,17.251 24.781,17.251C23.173,17.251 22.369,17.491 21.565,17.732C20.869,17.941 20.173,18.151 18.781,18.151L18.582,18.151C17.19,18.151 16.494,17.941 15.798,17.732C14.994,17.491 14.19,17.251 12.582,17.251C10.975,17.251 10.171,17.491 9.367,17.732C8.671,17.941 7.975,18.151 6.582,18.151C5.807,18.151 5.249,18.087 4.786,17.994C4.227,17.88 3.801,17.726 3.313,17.591L2.591,17.392L2.192,18.837L2.915,19.036C3.436,19.18 3.891,19.342 4.488,19.463L4.488,19.463C5.028,19.572 5.679,19.649 6.582,19.649C8.19,19.649 8.994,19.409 9.798,19.168C10.494,18.959 11.19,18.749 12.582,18.749C13.975,18.749 14.671,18.959 15.367,19.168C16.073,19.38 16.78,19.591 18.031,19.639Z" style="fill:white;"/>
</svg>
